<?xml version="1.0" encoding="iso-8859-1"?>
<!-- Generator: Adobe Illustrator 19.0.0, SVG Export Plug-In . SVG Version: 6.00 Build 0)  -->
<svg version="1.1" id="Layer_1" xmlns="http://www.w3.org/2000/svg" xmlns:xlink="http://www.w3.org/1999/xlink" x="0px" y="0px"
	 viewBox="0 0 496 496" style="enable-background:new 0 0 496 496;" xml:space="preserve">
<g>
	<g>
		<g>
			<path d="M496,224v-66.128L460.64,96H432V24c0-13.232-10.768-24-24-24H88C74.768,0,64,10.768,64,24v72H35.72L0,149.576V224h32v64
				h0.248C22.448,295.296,16,306.872,16,320c0,4.84,0.928,9.672,2.712,14.248C6.888,344.816,0,359.968,0,376
				c0,22.28,13.112,41.504,32,50.52V480H0v16h496v-16h-32v-53.48c18.888-9.008,32-28.24,32-50.52
				c0-16.032-6.888-31.184-18.712-41.752C479.072,329.672,480,324.84,480,320c0-13.016-6.344-24.488-16-31.792V224H496z M80,24
				c0-4.416,3.584-8,8-8h320c4.416,0,8,3.584,8,8v112c0,4.416-3.584,8-8,8H88c-4.416,0-8-3.584-8-8V24z M16,376
				c0-13.112,6.464-25.408,17.28-32.896l6.192-4.288l-3.912-6.448C33.192,328.48,32,324.312,32,320c0-13.232,10.768-24,24-24
				s24,10.768,24,24c0,4.312-1.192,8.48-3.56,12.368l-3.912,6.448l6.192,4.288C89.536,350.592,96,362.888,96,376
				c0,22.056-17.944,40-40,40C33.944,416,16,398.056,16,376z M64,480H48v-48.64c2.624,0.376,5.28,0.64,8,0.64
				c2.72,0,5.376-0.264,8-0.64V480z M240,480h-80V288h80V480z M336,480h-80V288h80V480z M416,480h-64V272H144v208H80v-53.48
				c18.888-9.008,32-28.24,32-50.52c0-16.032-6.888-31.184-18.712-41.752C95.072,329.672,96,324.84,96,320c0-22.056-17.944-40-40-40
				c-2.736,0-5.416,0.28-8,0.808V224h400v56.808c-2.584-0.528-5.264-0.808-8-0.808c-22.056,0-40,17.944-40,40
				c0,4.84,0.928,9.672,2.712,14.248C390.888,344.816,384,359.968,384,376c0,22.28,13.112,41.504,32,50.52V480z M448,480h-16v-48.64
				c2.624,0.376,5.28,0.64,8,0.64c2.72,0,5.376-0.264,8-0.64V480z M480,376c0,22.056-17.944,40-40,40c-22.056,0-40-17.944-40-40
				c0-13.112,6.464-25.408,17.28-32.896l6.192-4.288l-3.912-6.448C417.192,328.48,416,324.312,416,320c0-13.232,10.768-24,24-24
				s24,10.768,24,24c0,4.312-1.192,8.48-3.56,12.368l-3.912,6.448l6.192,4.288C473.536,350.592,480,362.888,480,376z M448,208v-32
				h-16v32h-32v-32h-16v32h-32v-32h-16v32h-32v-32h-16v32h-32v-32h-16v32h-32v-32h-16v32h-32v-32h-16v32h-32v-32H96v32H64v-32H48v32
				H16v-53.576L44.28,112H64v24c0,13.232,10.768,24,24,24h320c13.232,0,24-10.768,24-24v-24h19.36L480,162.128V208H448z"/>
			<path d="M124,128h8c15.44,0,28-12.56,28-28s-12.56-28-28-28h-8c-6.616,0-12-5.384-12-12c0-6.616,5.384-12,12-12h8
				c6.616,0,12,5.384,12,12v4h16v-4c0-15.44-12.56-28-28-28h-8c-15.44,0-28,12.56-28,28s12.56,28,28,28h8c6.616,0,12,5.384,12,12
				c0,6.616-5.384,12-12,12h-8c-6.616,0-12-5.384-12-12v-4H96v4C96,115.44,108.56,128,124,128z"/>
			<polygon points="192,88 224,88 224,128 240,128 240,32 224,32 224,72 192,72 192,32 176,32 176,128 192,128 			"/>
			<path d="M288,128c17.648,0,32-14.352,32-32V64c0-17.648-14.352-32-32-32s-32,14.352-32,32v32C256,113.648,270.352,128,288,128z
				 M272,64c0-8.824,7.176-16,16-16c8.824,0,16,7.176,16,16v32c0,8.824-7.176,16-16,16c-8.824,0-16-7.176-16-16V64z"/>
			<path d="M352,88h20c15.44,0,28-12.56,28-28s-12.56-28-28-28h-36v96h16V88z M352,48h20c6.616,0,12,5.384,12,12
				c0,6.616-5.384,12-12,12h-20V48z"/>
			<rect x="208" y="376" width="16" height="16"/>
			<rect x="272" y="376" width="16" height="16"/>
			<rect x="416" y="240" width="16" height="16"/>
			<rect x="384" y="240" width="16" height="16"/>
			<rect x="352" y="240" width="16" height="16"/>
		</g>
	</g>
</g>
<g>
</g>
<g>
</g>
<g>
</g>
<g>
</g>
<g>
</g>
<g>
</g>
<g>
</g>
<g>
</g>
<g>
</g>
<g>
</g>
<g>
</g>
<g>
</g>
<g>
</g>
<g>
</g>
<g>
</g>
</svg>
